<svg width="62" height="69" viewBox="0 0 62 69" fill="none" xmlns="http://www.w3.org/2000/svg">
<path d="M28.1062 27.4596L41.1099 66.8481M47.8864 1.086L60.8901 40.4744M47.7702 1.07326L28.076 14.0769M60.957 53.8205L41.2628 66.8242M47.8132 27.3736H41.2198V40.5604M47.8132 27.3736V40.5604H41.2198M47.8132 27.3736L41.2198 40.5604M1.07326 1.14652L14.1868 66.9341M28.7656 66.9341H40.4872C40.8918 66.9341 41.2198 66.6061 41.2198 66.2015V28.1062C41.2198 27.7016 40.8918 27.3736 40.4872 27.3736H28.7656C28.361 27.3736 28.033 27.7016 28.033 28.1062V66.2015C28.033 66.6061 28.361 66.9341 28.7656 66.9341ZM48.5458 40.5604H60.2674C60.672 40.5604 61 40.2324 61 39.8278V1.7326C61 1.328 60.672 1 60.2674 1H48.5458C48.1412 1 47.8132 1.328 47.8132 1.7326V39.8278C47.8132 40.2324 48.1412 40.5604 48.5458 40.5604ZM47.8132 1V13.4542C47.8132 13.8588 47.4852 14.1868 47.0806 14.1868L28.7656 14.1868C28.361 14.1868 28.033 13.8588 28.033 13.4542V1.7326C28.033 1.328 28.361 1 28.7656 1L47.8132 1ZM41.2198 66.9341H60.2674C60.672 66.9341 61 66.6061 61 66.2015V54.4799C61 54.0752 60.672 53.7472 60.2674 53.7472H41.9524C41.5478 53.7472 41.2198 54.0752 41.2198 54.4799V66.9341ZM1.84249 67.0806H13.5641C13.9687 67.0806 14.2967 66.7526 14.2967 66.348L14.1868 1.7326C14.1868 1.328 13.8588 1 13.4542 1H1.7326C1.328 1 1 1.328 1 1.7326L1.10989 66.348C1.10989 66.7526 1.43788 67.0806 1.84249 67.0806Z" stroke="white" stroke-width="2"/>
</svg>
