<svg width="160" height="163" viewBox="0 0 160 163" fill="none" xmlns="http://www.w3.org/2000/svg">
<g style="mix-blend-mode:hard-light">
<path d="M104.209 58.4865L102.743 65.3924C98.0235 87.6172 78.5599 103.496 56.1825 103.377L37.2097 103.277C24.4027 103.209 12.3846 109.692 5.24064 120.521L11.6598 90.291C15.5678 71.8868 31.616 58.6878 50.1477 58.6364L104.209 58.4865ZM61.7244 1.74229L160 0L158.376 7.65031C153.725 29.5502 134.739 45.3342 112.687 45.6318L49.2545 46.4877C36.4105 46.661 24.4435 53.2662 17.2872 64.1321L23.8148 33.391C27.6771 15.2019 43.4104 2.06698 61.7244 1.74229ZM13.3579 162.211C4.86915 160.087 -2.04867 150.352 0.557045 141.158C3.01228 130.621 20.3817 115.143 34.8743 114.91C36.4925 114.884 39.0741 114.876 42.6192 114.887C38.8366 131.159 36.1343 142.748 34.5121 149.652C32.3248 158.962 21.8467 164.334 13.3579 162.211Z" fill="white"/>
</g>
</svg>
