<svg width="54" height="75" viewBox="0 0 54 75" fill="none" xmlns="http://www.w3.org/2000/svg">
<path d="M25.5904 22.1478C26.9105 22.7764 28.3885 23.1284 29.9492 23.1284C35.5391 23.1284 40.0706 18.6122 40.0706 13.0412C40.0706 7.47007 35.5391 2.95386 29.9492 2.95386C27.5196 2.95386 25.29 3.80692 23.5455 5.22908" stroke="#A44CC8" stroke-width="4"/>
<path fill-rule="evenodd" clip-rule="evenodd" d="M19.7315 1.02759L19.8272 13.0409L30.2195 6.95291L19.7315 1.02759Z" fill="#A44CC8"/>
<path fill-rule="evenodd" clip-rule="evenodd" d="M51.0718 45.6805C51.0747 45.7034 51.0772 45.7263 51.08 45.7491C51.0771 45.7262 51.0747 45.7033 51.0718 45.6805Z" fill="#3C3C3B"/>
<path fill-rule="evenodd" clip-rule="evenodd" d="M51.1107 46.0253C51.1179 46.0991 51.1241 46.1729 51.1299 46.2469C51.124 46.173 51.1181 46.0991 51.1107 46.0253Z" fill="#3C3C3B"/>
<path fill-rule="evenodd" clip-rule="evenodd" d="M50.385 42.9943C50.4065 43.0492 50.4269 43.1042 50.4475 43.1592C50.4271 43.1041 50.4064 43.0492 50.385 42.9943Z" fill="#3C3C3B"/>
<path fill-rule="evenodd" clip-rule="evenodd" d="M53.8313 63.2255L53.8369 63.2232L50.2293 54.5762L50.6643 51.5228L50.2236 54.5785L53.8313 63.2255Z" fill="#3C3C3B"/>
<path fill-rule="evenodd" clip-rule="evenodd" d="M50.5413 43.4187C50.5462 43.433 50.5509 43.4471 50.5558 43.4614C50.5508 43.4471 50.5461 43.4329 50.5413 43.4187Z" fill="#3C3C3B"/>
<path fill-rule="evenodd" clip-rule="evenodd" d="M51.1068 48.3511C51.1036 48.3831 51.1 48.4151 51.0967 48.4472C51.1002 48.4151 51.1034 48.3831 51.1068 48.3511Z" fill="#3C3C3B"/>
<path fill-rule="evenodd" clip-rule="evenodd" d="M50.3399 42.8813C50.3168 42.8237 50.2949 42.7658 50.2709 42.7086C50.2709 42.7086 46.5043 33.881 45.1492 30.7058L45.8122 32.3253L50.3399 42.8813Z" fill="#3C3C3B"/>
<path fill-rule="evenodd" clip-rule="evenodd" d="M51.1212 48.1913C51.1754 47.5833 51.1815 46.9739 51.1394 46.3683C51.1799 46.9734 51.1726 47.5817 51.1212 48.1913Z" fill="#3C3C3B"/>
<g opacity="0.5">
<path opacity="0.5" fill-rule="evenodd" clip-rule="evenodd" d="M50.4476 43.1592C50.4797 43.2454 50.5114 43.3318 50.5413 43.4186C50.5112 43.332 50.48 43.2455 50.4476 43.1592Z" fill="#1D1D1B"/>
</g>
<g opacity="0.5">
<path opacity="0.5" fill-rule="evenodd" clip-rule="evenodd" d="M50.5557 43.4614C50.8011 44.1842 50.9736 44.9275 51.0716 45.6805C50.9763 44.9333 50.8058 44.1924 50.5557 43.4614Z" fill="#1D1D1B"/>
</g>
<g opacity="0.5">
<path opacity="0.5" fill-rule="evenodd" clip-rule="evenodd" d="M50.36 42.928L50.34 42.8812C50.3551 42.9189 50.3705 42.9564 50.3851 42.9942C50.3765 42.9722 50.3688 42.95 50.36 42.928Z" fill="#1D1D1B"/>
</g>
<g opacity="0.5">
<path opacity="0.5" fill-rule="evenodd" clip-rule="evenodd" d="M50.6643 51.5228L51.0223 49.0406C51.0521 48.8427 51.0759 48.6449 51.0966 48.447C51.0837 48.5627 51.0696 48.6783 51.0532 48.7937L50.6643 51.5228Z" fill="#1D1D1B"/>
</g>
<g opacity="0.5">
<path opacity="0.5" fill-rule="evenodd" clip-rule="evenodd" d="M51.1212 48.1913C51.1165 48.2445 51.1121 48.2977 51.1067 48.351C51.1118 48.2977 51.1168 48.2445 51.1212 48.1913Z" fill="#1D1D1B"/>
</g>
<g opacity="0.5">
<path opacity="0.5" fill-rule="evenodd" clip-rule="evenodd" d="M51.1299 46.2468C51.1331 46.2873 51.1365 46.3279 51.1394 46.3683C51.1366 46.3278 51.1331 46.2873 51.1299 46.2468Z" fill="#1D1D1B"/>
</g>
<g opacity="0.5">
<path opacity="0.5" fill-rule="evenodd" clip-rule="evenodd" d="M51.08 45.7491C51.0913 45.8411 51.1016 45.9331 51.1108 46.0253C51.1018 45.9332 51.0911 45.8411 51.08 45.7491Z" fill="#1D1D1B"/>
</g>
<path fill-rule="evenodd" clip-rule="evenodd" d="M50.2237 54.5785L50.6643 51.5228L51.0532 48.7938C51.0696 48.6783 51.0837 48.5627 51.0966 48.4471C51.1 48.415 51.1036 48.383 51.1067 48.351C51.1122 48.2978 51.1165 48.2445 51.1212 48.1912C51.1725 47.5817 51.1798 46.9734 51.1393 46.3682C51.1365 46.3277 51.1331 46.2872 51.1299 46.2468C51.1241 46.1729 51.1179 46.099 51.1107 46.0252C51.1016 45.933 51.0913 45.841 51.0799 45.749C51.0771 45.7261 51.0746 45.7032 51.0716 45.6805C50.9736 44.9274 50.8011 44.1842 50.5557 43.4614C50.5509 43.4471 50.5462 43.4328 50.5412 43.4187C50.5113 43.3318 50.4796 43.2454 50.4475 43.1592C50.427 43.1042 50.4065 43.0492 50.3851 42.9943C50.3703 42.9565 50.355 42.919 50.3399 42.8813L45.8122 32.3254L45.1492 30.7059C44.8618 30.0327 44.6825 29.6127 44.671 29.5859C44.4479 29.0677 43.2432 27.0127 39.8614 27.2965C38.2212 27.4343 36.8898 28.3215 36.2235 29.3121C35.3347 28.4251 33.7131 27.9626 31.9541 28.216C30.3221 28.451 28.9777 29.2436 28.3126 30.2366C27.4532 29.2903 25.7914 28.7844 23.9801 29.0364C23.9692 29.0379 23.9585 29.0386 23.9476 29.0402C22.2217 29.2888 20.8178 30.161 20.1985 31.2344L15.8006 23.4356C15.2015 22.3733 14.2233 21.5746 13.0604 21.1984L6.81643 19.1783C5.09699 18.6221 3.26311 19.3613 2.38692 20.8638C2.26703 21.0694 2.16467 21.289 2.08337 21.5218L2.05919 21.5911C1.399 23.4839 2.34229 25.5603 4.20488 26.3148L7.65141 27.7109C8.73413 28.1495 9.59602 29.0011 10.0453 30.0764L17.1513 47.0789L17.6598 48.2931C17.3477 48.7374 16.9497 49.0015 16.5148 49.1114C15.7531 49.3037 14.8785 49.0224 14.1547 48.4043C14.1547 48.4043 5.40094 39.7792 5.38956 39.768C3.9647 38.3556 2.14875 38.6963 1.03762 39.779C0.476364 40.3259 0.0942334 41.0613 0.0345917 41.8573C-0.0239419 42.6368 0.225808 43.4735 0.917331 44.2448L11.873 57.6943C13.6666 59.8962 15.8316 61.7698 18.2706 63.2309L22.8567 65.9784L26.6029 74.9558L44.0862 67.673L52.708 64.0816L53.9754 63.5536L50.2237 54.5785Z" fill="#333840"/>
<g opacity="0.5">
<path opacity="0.5" fill-rule="evenodd" clip-rule="evenodd" d="M53.9754 63.5535L50.2236 54.5784L50.6643 51.5227L51.0532 48.7937C51.0696 48.6782 51.0837 48.5626 51.0966 48.447C51.0999 48.4149 51.1036 48.3829 51.1067 48.3509C51.1122 48.2977 51.1165 48.2444 51.1212 48.1911C51.1725 47.5816 51.1798 46.9733 51.1393 46.3681C51.1365 46.3276 51.1331 46.2871 51.1299 46.2467C51.1241 46.1728 51.1179 46.0989 51.1107 46.0251C51.1015 45.9329 51.0913 45.8409 51.0799 45.7489C51.0771 45.726 51.0745 45.7032 51.0716 45.6804C50.9736 44.9273 50.8011 44.1841 50.5557 43.4613C50.5509 43.447 50.5461 43.4327 50.5412 43.4186C50.5113 43.3317 50.4795 43.2453 50.4475 43.1591C50.4269 43.1041 50.4065 43.0491 50.385 42.9942C50.3703 42.9564 50.355 42.9189 50.3399 42.8812L45.8122 32.3253L45.1491 30.7059C44.8618 30.0326 44.6825 29.6126 44.671 29.5858C44.4479 29.0676 43.2431 27.0126 39.8614 27.2964C38.2211 27.4342 36.8898 28.3214 36.2234 29.312C35.3346 28.425 33.713 27.9625 31.9541 28.2159C30.3221 28.4509 28.9777 29.2435 28.3125 30.2365C27.4532 29.2902 25.7914 28.7843 23.98 29.0363L26.1628 34.1007L29.8636 33.7144L44.0863 67.6729L52.708 64.0815L53.9754 63.5535Z" fill="#1D1D1B"/>
</g>
<path opacity="0.5" fill-rule="evenodd" clip-rule="evenodd" d="M16.5971 31.5927L20.2054 31.2465L15.8007 23.4356C15.2016 22.3734 14.2234 21.5746 13.0605 21.1984L6.81653 19.1783C5.0971 18.6221 3.26321 19.3613 2.38702 20.8638L11.3621 23.8606C12.1368 24.1192 12.7853 24.6596 13.178 25.3738L16.5971 31.5927Z" fill="#1D1D1B"/>
<path opacity="0.5" fill-rule="evenodd" clip-rule="evenodd" d="M18.5557 53.9078L20.1299 54.1814L17.1514 47.0789L17.6599 48.2931C17.3478 48.7374 16.9498 49.0015 16.5149 49.1114C15.7532 49.3038 14.8786 49.0224 14.1548 48.4043C14.1548 48.4043 5.40104 39.7793 5.38966 39.768C3.9648 38.3556 2.14885 38.6964 1.03772 39.779L10.759 49.7909C12.8559 51.9503 15.5854 53.3916 18.5557 53.9078Z" fill="#1D1D1B"/>
</svg>
