<svg width="576" height="320" viewBox="0 0 576 320" fill="none" xmlns="http://www.w3.org/2000/svg">
<rect opacity="0.1" y="0.000244141" width="576" height="320" rx="16" fill="white"/>
<mask id="mask0" mask-type="alpha" maskUnits="userSpaceOnUse" x="208" y="32" width="336" height="288">
<rect x="208" y="32" width="336" height="288" fill="white"/>
</mask>
<g mask="url(#mask0)">
<rect x="209" y="33" width="216.536" height="216.536" rx="7" fill="white" stroke="#222222" stroke-width="2"/>
<rect x="209" y="51" width="216" height="20" fill="#222222"/>
<rect x="209" y="91" width="216" height="20" fill="#222222"/>
<rect x="209" y="131" width="216" height="20" fill="#222222"/>
<rect x="209" y="171" width="216" height="20" fill="#222222"/>
<rect x="209" y="211" width="216" height="20" fill="#222222"/>
<mask id="mask1" mask-type="alpha" maskUnits="userSpaceOnUse" x="442" y="32" width="102" height="102">
<rect x="443.926" y="33" width="99.0731" height="99.0731" rx="7" fill="white" stroke="#222222" stroke-width="2"/>
</mask>
<g mask="url(#mask1)">
<rect x="443.926" y="33" width="99.0731" height="99.0731" rx="7" fill="white" stroke="#222222" stroke-width="2"/>
<rect x="431" y="44" width="43.8406" height="10" transform="rotate(-45 431 44)" fill="#222222"/>
<rect x="432.632" y="67.6323" width="66.468" height="10" transform="rotate(-45 432.632 67.6323)" fill="#222222"/>
<rect x="432.382" y="94.8823" width="112.076" height="10" transform="rotate(-45 432.382 94.8823)" fill="#222222"/>
<rect x="433.265" y="119.265" width="137.886" height="10" transform="rotate(-45 433.265 119.265)" fill="#222222"/>
<rect x="445.816" y="132.816" width="138.946" height="10" transform="rotate(-45 445.816 132.816)" fill="#222222"/>
<rect x="470.449" y="133.448" width="103.238" height="10" transform="rotate(-45 470.449 133.448)" fill="#222222"/>
<rect x="496.449" y="134.448" width="70.7107" height="10" transform="rotate(-45 496.449 134.448)" fill="#222222"/>
<rect x="522.081" y="134.081" width="32.5269" height="10" transform="rotate(-45 522.081 134.081)" fill="#222222"/>
</g>
<rect x="443.926" y="150.463" width="99.0731" height="99.0731" rx="7" fill="white" stroke="#222222" stroke-width="2"/>
<path d="M510.054 211C512.959 214.329 512.616 219.382 509.288 222.288C505.959 225.193 500.905 224.85 498 221.522" stroke="#222222" stroke-width="2"/>
<path d="M465.633 203.692C462.582 200.496 462.7 195.432 465.895 192.381C469.091 189.33 474.155 189.448 477.206 192.644" stroke="#222222" stroke-width="2"/>
<path d="M519.524 192.835C516.474 189.639 516.591 184.575 519.787 181.524C522.983 178.473 528.047 178.591 531.098 181.787" stroke="#222222" stroke-width="2"/>
<circle cx="516" cy="163" r="4" fill="#222222"/>
<circle cx="470" cy="166" r="4" fill="#222222"/>
<circle cx="456" cy="221" r="4" fill="#222222"/>
<circle cx="527" cy="229" r="4" fill="#222222"/>
<circle cx="486" cy="241" r="4" fill="#222222"/>
<circle cx="498" cy="198" r="4" fill="#222222"/>
<mask id="mask2" mask-type="alpha" maskUnits="userSpaceOnUse" x="442" y="266" width="102" height="102">
<rect x="443.926" y="267.927" width="99.0731" height="99.0731" rx="7" fill="#222222" stroke="#222222" stroke-width="2"/>
</mask>
<g mask="url(#mask2)">
<rect x="443.926" y="267.927" width="99.0731" height="99.0731" rx="7" fill="#222222" stroke="#222222" stroke-width="2"/>
<circle cx="444" cy="299" r="8" fill="white"/>
<circle cx="493" cy="317" r="8" fill="white"/>
<circle cx="478" cy="282" r="8" fill="white"/>
<circle cx="516" cy="292" r="8" fill="white"/>
<circle cx="539" cy="316" r="8" fill="white"/>
<circle cx="539" cy="267" r="8" fill="white"/>
</g>
<mask id="mask3" mask-type="alpha" maskUnits="userSpaceOnUse" x="325" y="266" width="102" height="102">
<rect x="326.464" y="267.927" width="99.0731" height="99.0731" rx="7" fill="white" stroke="#222222" stroke-width="2"/>
</mask>
<g mask="url(#mask3)">
<rect x="326.464" y="267.927" width="99.0731" height="99.0731" rx="7" fill="white" stroke="#222222" stroke-width="2"/>
<circle cx="376" cy="322" r="5" stroke="#222222" stroke-width="2"/>
<circle cx="376" cy="322" r="11" stroke="#222222" stroke-width="2"/>
<circle cx="376" cy="322" r="23" stroke="#222222" stroke-width="2"/>
<circle cx="376" cy="322" r="17" stroke="#222222" stroke-width="2"/>
<circle cx="376" cy="322" r="29" stroke="#222222" stroke-width="2"/>
<circle cx="376" cy="322" r="35" stroke="#222222" stroke-width="2"/>
<circle cx="376" cy="322" r="41" stroke="#222222" stroke-width="2"/>
<circle cx="376" cy="322" r="47" stroke="#222222" stroke-width="2"/>
<circle cx="376" cy="322" r="53" stroke="#222222" stroke-width="2"/>
<circle cx="376" cy="322" r="59" stroke="#222222" stroke-width="2"/>
<circle cx="376" cy="322" r="65" stroke="#222222" stroke-width="2"/>
</g>
<mask id="mask4" mask-type="alpha" maskUnits="userSpaceOnUse" x="208" y="267" width="102" height="102">
<rect x="209" y="268" width="99.0731" height="99.0731" rx="7" fill="white" stroke="#222222" stroke-width="2"/>
</mask>
<g mask="url(#mask4)">
<rect x="209" y="268" width="99.0731" height="99.0731" rx="7" fill="white" stroke="#222222" stroke-width="2"/>
<path d="M208.264 273.039C209.031 271.695 210.969 271.695 211.736 273.039L216.29 281.008C217.052 282.341 216.089 284 214.554 284H205.446C203.911 284 202.948 282.341 203.71 281.008L208.264 273.039Z" fill="#222222"/>
<path d="M223.736 281.961C222.969 283.305 221.031 283.305 220.264 281.961L215.71 273.992C214.948 272.659 215.911 271 217.446 271L226.554 271C228.089 271 229.052 272.659 228.29 273.992L223.736 281.961Z" fill="#222222"/>
<path d="M232.264 273.039C233.031 271.695 234.969 271.695 235.736 273.039L240.29 281.008C241.052 282.341 240.089 284 238.554 284H229.446C227.911 284 226.948 282.341 227.71 281.008L232.264 273.039Z" fill="#222222"/>
<path d="M247.736 281.961C246.969 283.305 245.031 283.305 244.264 281.961L239.71 273.992C238.948 272.659 239.911 271 241.446 271L250.554 271C252.089 271 253.052 272.659 252.29 273.992L247.736 281.961Z" fill="#222222"/>
<path d="M256.264 273.039C257.031 271.695 258.969 271.695 259.736 273.039L264.29 281.008C265.052 282.341 264.089 284 262.554 284H253.446C251.911 284 250.948 282.341 251.71 281.008L256.264 273.039Z" fill="#222222"/>
<path d="M271.736 281.961C270.969 283.305 269.031 283.305 268.264 281.961L263.71 273.992C262.948 272.659 263.911 271 265.446 271L274.554 271C276.089 271 277.052 272.659 276.29 273.992L271.736 281.961Z" fill="#222222"/>
<path d="M280.264 273.039C281.031 271.695 282.969 271.695 283.736 273.039L288.29 281.008C289.052 282.341 288.089 284 286.554 284H277.446C275.911 284 274.948 282.341 275.71 281.008L280.264 273.039Z" fill="#222222"/>
<path d="M304.264 273.039C305.031 271.695 306.969 271.695 307.736 273.039L312.29 281.008C313.052 282.341 312.089 284 310.554 284H301.446C299.911 284 298.948 282.341 299.71 281.008L304.264 273.039Z" fill="#222222"/>
<path d="M295.736 281.961C294.969 283.305 293.031 283.305 292.264 281.961L287.71 273.992C286.948 272.659 287.911 271 289.446 271L298.554 271C300.089 271 301.052 272.659 300.29 273.992L295.736 281.961Z" fill="#222222"/>
<path d="M220.264 290.039C221.031 288.695 222.969 288.695 223.736 290.039L228.29 298.008C229.052 299.341 228.089 301 226.554 301H217.446C215.911 301 214.948 299.341 215.71 298.008L220.264 290.039Z" fill="#222222"/>
<path d="M235.736 298.961C234.969 300.305 233.031 300.305 232.264 298.961L227.71 290.992C226.948 289.659 227.911 288 229.446 288L238.554 288C240.089 288 241.052 289.659 240.29 290.992L235.736 298.961Z" fill="#222222"/>
<path d="M244.264 290.039C245.031 288.695 246.969 288.695 247.736 290.039L252.29 298.008C253.052 299.341 252.089 301 250.554 301H241.446C239.911 301 238.948 299.341 239.71 298.008L244.264 290.039Z" fill="#222222"/>
<path d="M259.736 298.961C258.969 300.305 257.031 300.305 256.264 298.961L251.71 290.992C250.948 289.659 251.911 288 253.446 288L262.554 288C264.089 288 265.052 289.659 264.29 290.992L259.736 298.961Z" fill="#222222"/>
<path d="M268.264 290.039C269.031 288.695 270.969 288.695 271.736 290.039L276.29 298.008C277.052 299.341 276.089 301 274.554 301H265.446C263.911 301 262.948 299.341 263.71 298.008L268.264 290.039Z" fill="#222222"/>
<path d="M283.736 298.961C282.969 300.305 281.031 300.305 280.264 298.961L275.71 290.992C274.948 289.659 275.911 288 277.446 288L286.554 288C288.089 288 289.052 289.659 288.29 290.992L283.736 298.961Z" fill="#222222"/>
<path d="M292.264 290.039C293.031 288.695 294.969 288.695 295.736 290.039L300.29 298.008C301.052 299.341 300.089 301 298.554 301H289.446C287.911 301 286.948 299.341 287.71 298.008L292.264 290.039Z" fill="#222222"/>
<path d="M307.736 298.961C306.969 300.305 305.031 300.305 304.264 298.961L299.71 290.992C298.948 289.659 299.911 288 301.446 288L310.554 288C312.089 288 313.052 289.659 312.29 290.992L307.736 298.961Z" fill="#222222"/>
<path d="M211.736 298.961C210.969 300.305 209.031 300.305 208.264 298.961L203.71 290.992C202.948 289.659 203.911 288 205.446 288L214.554 288C216.089 288 217.052 289.659 216.29 290.992L211.736 298.961Z" fill="#222222"/>
<path d="M208.264 307.039C209.031 305.695 210.969 305.695 211.736 307.039L216.29 315.008C217.052 316.341 216.089 318 214.554 318H205.446C203.911 318 202.948 316.341 203.71 315.008L208.264 307.039Z" fill="#222222"/>
<path d="M223.736 315.961C222.969 317.305 221.031 317.305 220.264 315.961L215.71 307.992C214.948 306.659 215.911 305 217.446 305L226.554 305C228.089 305 229.052 306.659 228.29 307.992L223.736 315.961Z" fill="#222222"/>
<path d="M232.264 307.039C233.031 305.695 234.969 305.695 235.736 307.039L240.29 315.008C241.052 316.341 240.089 318 238.554 318H229.446C227.911 318 226.948 316.341 227.71 315.008L232.264 307.039Z" fill="#222222"/>
<path d="M247.736 315.961C246.969 317.305 245.031 317.305 244.264 315.961L239.71 307.992C238.948 306.659 239.911 305 241.446 305L250.554 305C252.089 305 253.052 306.659 252.29 307.992L247.736 315.961Z" fill="#222222"/>
<path d="M256.264 307.039C257.031 305.695 258.969 305.695 259.736 307.039L264.29 315.008C265.052 316.341 264.089 318 262.554 318H253.446C251.911 318 250.948 316.341 251.71 315.008L256.264 307.039Z" fill="#222222"/>
<path d="M271.736 315.961C270.969 317.305 269.031 317.305 268.264 315.961L263.71 307.992C262.948 306.659 263.911 305 265.446 305L274.554 305C276.089 305 277.052 306.659 276.29 307.992L271.736 315.961Z" fill="#222222"/>
<path d="M280.264 307.039C281.031 305.695 282.969 305.695 283.736 307.039L288.29 315.008C289.052 316.341 288.089 318 286.554 318H277.446C275.911 318 274.948 316.341 275.71 315.008L280.264 307.039Z" fill="#222222"/>
<path d="M304.264 307.039C305.031 305.695 306.969 305.695 307.736 307.039L312.29 315.008C313.052 316.341 312.089 318 310.554 318H301.446C299.911 318 298.948 316.341 299.71 315.008L304.264 307.039Z" fill="#222222"/>
<path d="M295.736 315.961C294.969 317.305 293.031 317.305 292.264 315.961L287.71 307.992C286.948 306.659 287.911 305 289.446 305L298.554 305C300.089 305 301.052 306.659 300.29 307.992L295.736 315.961Z" fill="#222222"/>
</g>
</g>
<mask id="mask5" mask-type="alpha" maskUnits="userSpaceOnUse" x="0" y="29" width="241" height="291">
<rect x="7.24792e-05" y="29" width="241" height="291" fill="#C4C4C4"/>
</mask>
<g mask="url(#mask5)">
<path fill-rule="evenodd" clip-rule="evenodd" d="M163.321 295.058C167.555 295.153 165.74 255.649 162.913 248.369C162.517 246.894 162.19 244.878 162.256 243.068C165.752 243.418 165.376 241.024 165.195 238.138C165.255 235.847 165.414 231.118 161.907 232.959C151.392 211.908 162.761 157.491 135.076 152.366C131.74 151.556 128.292 150.717 125.483 148.404C122.511 142.91 120.997 142.209 116.073 141.853C115.161 136.905 113.456 131.618 108.377 129.692C103.726 127.87 98.3132 127.725 93.4638 128.697C89.45 130.006 89.0829 137.467 88.1912 141.145C82.7853 139.712 76.1231 136.697 73.2127 143.532C71.8031 143.11 70.4969 143.384 69.0644 143.853C57.0589 145.787 45.4109 151.218 40.958 162.551C38.2074 169.351 40.1595 176.754 41.191 183.797C42.1531 191.466 39.6162 198.571 38.4403 205.948C36.6893 216.106 36.3727 224.254 37.5153 231.803C34.4951 232.491 34.2724 235.238 35.4942 238.112C35.8531 239.085 36.2145 240.111 37.0079 240.66C38.622 241.677 40.708 240.506 42.4621 240.326C42.8269 244.383 43.5334 248.363 44.7024 252.886C44.3638 254.241 43.9756 255.753 43.6269 257.112L43.5093 256.985C39.5046 273.759 27.5944 290.053 31.2961 307.88C31.5138 308.474 31.9268 308.35 32.244 308.34C34.0815 309.038 35.7694 308.595 37.6225 308.666C42.0178 308.669 46.2643 309.232 50.2036 309.722C50.9236 314.426 53.2648 322.128 57.4398 323.921C57.5101 323.945 58.7476 323.687 58.8511 323.68C47.7366 368.747 27.7387 410.419 19.7951 456.394C19.748 456.956 20.6609 456.659 20.9604 456.727C20.9194 458.003 21.7437 458.309 22.898 458.763C21.4106 461.873 20.0707 464.978 18.5901 468.096C17.9035 469.639 16.7845 471.163 16.5806 472.812C14.9414 473.86 13.8374 475.908 13.8666 477.819C9.44631 479.688 10.6478 488.916 9.63928 493.486C8.61953 500.295 3.76915 505.051 0.443412 510.633C-0.23435 511.754 -0.956065 513.222 -0.988091 514.63C-3.04981 515.596 -3.81858 517.708 -3.68215 521.262C-3.6895 525.42 -2.51665 527.003 0.645859 527.104C9.23586 527.962 19.2596 527.612 27.8995 526.636C34.3627 525.814 40.0901 526.496 38.645 518.73C38.3476 516.85 38.9188 514.318 37.8061 512.797C37.12 508.267 37.5192 503.702 38.9986 499.227C39.898 495.459 41.4174 487.677 40.7878 482.62C40.4966 480.281 35.7226 478.995 34.8822 478.881C35.1496 477.12 35.0319 474.044 34.0847 472.821C35.824 472.578 36.2612 472.118 36.6235 470.186C37.4891 467.058 37.6043 463.661 39.7481 461.025C43.6037 461.075 47.4464 460.096 51.2999 459.977L51.4918 459.534C53.771 459.505 56.0374 459.103 58.2008 458.313C58.6805 458.54 59.2942 458.735 59.5638 458.009L60.8507 453.984C75.8312 406.311 92.4364 358.523 108.627 311.199C109.572 308.898 110.709 306.453 112.187 304.402C112.688 333.358 118.753 362.282 119.274 391.224C119.978 411.134 119.797 430.835 121.67 450.816C122.152 455.045 122.664 454.904 123.295 454.644C123.548 454.684 124.144 454.811 124.402 454.865C123.98 459.067 123.494 465.888 121.692 470.186C117.709 470.801 118.422 473.858 119.305 476.391C118.355 477.203 118.49 479.095 118.772 480.142C115.024 480.146 114.207 483.194 114.465 485.118C114.822 488.335 114.622 493.341 116.769 496.089C118.033 499.592 120.091 502.899 120.895 506.674C121.4 509.451 121.205 513.497 121.692 516.252C120.466 516.818 120.986 517.705 120.779 519.423C119.718 527.284 123.452 525.947 130.055 526.489C134.013 527.363 164.144 529.102 162.842 523.872C163.064 521.742 162.073 520.807 161.649 518.71C161.459 518.153 157.705 511.712 155.466 509.274C147.956 502.218 148.284 492.745 148.522 481.834C148.08 478.877 145.805 476.045 142.903 476.363C143.736 473.205 142.191 470.458 138.963 469.545C139.285 465.969 139.625 461.11 140.805 458.016L139.693 456.884L141.182 457.062L141.676 455.818L142.215 457.181C144.77 457.181 147.653 456.615 150.101 456.348C150.492 456.37 150.317 455.839 150.381 455.634C152.693 455.155 152.946 453.927 152.537 451.001C153.076 403.484 152.842 356.414 152.106 308.809C155.718 308.97 159.241 307.653 162.791 306.775C164.052 307.566 164.409 304.747 164.262 304.139C164.062 300.99 163.672 297.917 163.321 295.058Z" fill="white"/>
<path fill-rule="evenodd" clip-rule="evenodd" d="M89.1372 134.52C89.6741 134.944 89.6179 136.119 89.6708 136.776L89.6745 136.819C89.8435 138.806 89.615 140.802 89.1303 142.732L89.0894 142.892C88.8454 143.839 88.6295 145.022 87.8698 145.685C87.0472 146.404 85.7403 145.939 85.7105 144.78C85.6957 144.242 85.8753 143.724 86.1028 143.219C84.5089 143.834 82.9151 144.442 81.3147 145.035C80.2923 153.489 92.1028 163.839 98.9406 167.463C108.898 172.974 117.277 164.532 118.551 154.608C118.766 153.29 118.909 151.935 118.937 150.598C118.96 149.482 118.733 147.923 119.481 146.968C118.951 146.956 118.48 147.03 117.961 147.112L117.986 147.155C118.28 147.68 118.696 148.989 117.765 149.088C115.755 148.877 114.82 145.353 114.33 143.664C114.012 142.513 113.572 137.739 114.545 137.176C114.838 138.31 114.722 139.542 115.079 140.679C115.89 141.006 117.434 141.094 117.792 141.154C121.968 141.203 124.336 144.201 126.029 147.71C130.992 151.783 138.126 151.083 143.485 154.437C159.883 166.324 154.528 212.596 162.696 232.282C164.331 231.605 165.998 232.96 166.216 234.613C166.442 235.885 166.375 237.247 166.393 238.535L166.4 238.696C166.534 241.33 166.99 244.292 163.431 244.349C163.436 245.82 163.713 247.244 164.069 248.664C166.039 257.258 166.899 266.111 167.093 274.921L167.103 275.569C167.167 280.199 167.224 294.526 164.562 296.221L164.686 297.23C164.994 299.754 165.284 302.284 165.446 304.82C165.702 306.137 164.832 309.292 163.058 308.456C159.805 309.261 156.596 310.448 153.215 310.455C154.034 337.704 153.627 364.982 153.748 392.243C153.487 412.339 154.574 432.6 153.624 452.618L153.658 452.9C153.927 455.148 154.007 457.103 151.409 457.872C151.371 458.422 150.948 458.716 150.446 458.78C149.022 458.972 147.598 459.154 146.172 459.329C144.844 459.427 143.423 459.758 142.1 459.6C142.227 459.73 141.88 459.75 141.842 459.655C140.636 462.683 140.285 465.984 139.987 469.214C142.916 470.331 144.515 472.842 144.036 475.99C146.992 476.11 149.15 479.394 149.564 482.162C149.83 484.071 149.617 485.968 149.532 487.881C149.122 494.419 150.084 501.463 154.305 506.678L154.481 506.886C157.195 510.078 160.637 513.003 161.807 517.175C162.132 517.327 162.399 517.62 162.516 518.078L163.275 521.055V521.055L163.652 522.543C163.928 523.628 164.173 524.738 164.025 525.861L164.01 525.97C163.271 533.084 134.102 529.655 128.409 529.144C126.121 528.785 123.61 528.981 121.549 527.769C119.022 526.101 118.706 522.718 119.14 519.946L119.176 519.687C119.352 518.447 119.609 517.148 120.785 516.455C120.389 513.887 120.542 511.26 120.071 508.702C119.36 505.083 117.209 501.943 116.11 498.468C114.508 496.687 114.454 493.91 114.119 491.632C113.865 489.423 113.658 487.198 113.572 484.975C113.34 482.036 114.615 479.612 117.706 479.229C117.562 478.672 117.955 478.19 118.345 477.834C117.424 474.561 117.17 470.069 121.167 468.953C122.681 465.199 123.121 461.131 123.524 457.127C123.476 457.117 123.428 457.109 123.381 457.101C121.39 457.929 120.975 454.001 120.842 452.464C118.957 432.539 119.131 412.497 118.423 392.51L118.354 391.065C117.733 377.896 117.364 364.612 115.086 351.619C112.794 337.138 112.195 322.42 111.411 307.786C110.489 309.22 109.992 310.867 109.245 312.394C99.5546 340.864 89.6114 369.247 80.0307 397.755C73.0868 418.394 66.4527 439.144 59.7988 459.88C59.4592 460.942 58.3895 461.162 57.6066 460.822C55.6138 461.513 53.5222 461.906 51.4176 461.973C51.2906 462.265 51.0302 462.478 50.6495 462.437C49.5237 462.313 48.2282 462.665 47.1025 462.797C44.5267 463.051 42.0261 463.446 39.4267 463.483C37.8164 465.519 37.715 468.28 36.9727 470.703C36.5453 471.938 36.6124 474.708 35.1364 475.056C35.6655 475.87 35.7347 476.849 35.649 477.857C36.108 477.961 36.5737 478.158 37.0055 478.36C37.4261 478.573 37.9816 478.555 38.2715 478.984C46.5154 480.478 40.4908 496.131 39.0579 501.308C37.6514 505.541 37.211 509.961 37.8528 514.38C38.8339 515.735 38.5052 517.75 38.6554 519.356C38.7345 520.79 38.8795 522.244 38.8665 523.679C38.7065 529.64 31.3471 528.67 27.1953 529.444C24.6026 529.745 21.9984 529.955 19.3942 530.119C12.7895 530.529 6.14761 530.56 -0.443637 529.922C-4.69935 529.787 -5.61444 527.011 -5.60769 523.214L-5.61418 523.057C-5.71008 520.48 -5.29451 517.368 -2.84691 516.028C-2.72494 514.667 -2.03417 513.292 -1.3289 512.102C1.95074 506.588 6.87481 501.757 7.8433 495.14C8.79334 490.809 7.71688 481.274 12.1206 479.015C12.2226 477.065 13.4209 475.077 14.9045 474.022C15.1908 472.398 16.2695 470.904 16.9367 469.411C18.2978 466.561 19.5569 463.665 20.9107 460.812C20.2018 460.512 19.4486 459.96 19.3497 459.177C18.669 459.185 17.9965 458.745 18.0789 457.917C18.3194 455.513 18.8455 453.148 19.3423 450.785L19.4043 450.49C28.2444 407.76 46.4993 367.803 57.1797 325.621C55.7427 325.881 54.3992 324.238 53.6048 323.168C51.0385 319.713 49.5228 315.533 48.8562 311.291L47.65 311.142C43.6271 310.648 39.5845 310.215 35.528 310.332L34.5503 310.364C33.4642 310.397 32.3763 310.389 31.3438 309.998C30.6236 310.065 29.8736 309.678 29.6958 308.87C26.6912 293.897 34.0763 279.688 39.3657 266.159C40.6118 262.832 41.4985 259.458 42.3442 256.013C42.3721 255.901 42.5468 255.925 42.5419 256.04C42.377 259.869 41.4277 263.731 40.4633 267.422C37.2969 279.938 30.7002 292.212 32.313 305.463C37.3264 301.515 43.2808 298.773 49.5353 297.612C49.8962 296.044 50.2951 294.488 50.5951 292.91C50.3001 290.483 50.099 288.045 49.8419 285.607C49.0738 278.314 47.9004 271.04 46.3362 263.876C43.9097 256.667 41.7913 249.36 41.0338 241.759L40.8959 241.787C39.2135 242.128 37.36 242.869 35.7992 241.798C34.8084 241.111 34.3799 239.973 33.9795 238.88C32.8363 236.229 32.6248 232.745 35.86 231.637C34.654 223.21 35.4377 214.413 36.8951 206.065C38.0625 198.747 40.623 191.538 39.6644 184.047C38.6001 176.848 36.6162 169.309 39.4844 162.262C44.1982 150.502 56.1354 144.923 67.8751 143.127L68.0653 143.071C69.5176 142.641 70.8401 142.188 72.3533 142.514C75.9225 135.891 81.7111 138.585 87.3637 140.061C87.7452 138.938 88.0633 137.789 88.3625 136.641C88.5487 136.056 88.4873 134.707 89.1372 134.52ZM121.854 519.668L121.839 519.957C121.69 523.058 121.858 525.715 125.703 525.694C128.348 525.977 130.994 526.252 133.644 526.491L134.638 526.579C142.502 527.28 150.461 527.623 158.31 526.57L158.637 526.526C159.293 526.432 160.508 526.451 161.027 525.966C161.653 525.123 160.929 523.517 160.777 522.539C148.529 522.397 136.265 521.945 124.01 522.101C122.721 522.108 122.139 521.006 122.258 520.003C122.113 519.905 121.976 519.791 121.854 519.668ZM-2.49543 518.113C-3.09752 520.231 -2.94918 522.232 -2.60899 524.352C-2.43889 526.573 -1.38255 526.715 0.529064 526.767C7.99156 527.456 15.5083 527.312 22.9729 526.734C26.9737 526.303 31.0851 526.319 35.0115 525.434C36.8848 524.604 35.8034 521.994 35.867 520.393C27.0491 526.075 13.7132 525.354 4.09747 522.066L3.94339 522.001C1.6688 521.045 -1.23903 520.443 -2.49543 518.113ZM12.111 479.878C11.0561 481.068 11.0761 484.546 11.0283 485.511C10.9144 487.839 10.9325 490.172 10.8316 492.5C10.906 502.304 5.24449 507.194 1.04004 515.077C-0.109929 516.99 1.56302 517.261 2.92379 517.881C11.7354 521.982 22.1582 522.609 31.3637 519.469C35.991 518.125 34.9806 515.011 34.5878 511.202C34.201 503.419 38.2965 496.406 39.5079 488.877L39.5518 488.613C39.9142 486.356 40.4898 480.819 37.0041 482.018C36.2377 482.49 35.5174 481.898 35.4268 481.175C35.3356 481.19 35.2418 481.198 35.1515 481.2C34.7444 483.716 34.3225 486.229 33.917 488.746C34.2582 488.962 34.5779 489.207 34.8614 489.487C35.2059 489.829 34.9653 490.546 34.4461 490.502C34.1792 490.479 33.9154 490.439 33.6533 490.389C33.4454 492.576 29.9715 491.349 30.9749 489.596C25.9798 487.87 20.4767 488.007 15.4041 489.331L15.3832 489.34C14.9905 489.496 12.1669 490.062 13.0752 490.502C13.4538 490.548 12.5918 491.043 12.4406 490.277C12.3919 489.315 14.5866 488.843 15.2591 488.444C13.5631 486.017 12.4042 482.871 12.111 479.878ZM140.079 472.192C135.374 469.644 129.591 470.59 124.487 471.041L124.273 471.065C122.974 471.205 121.163 471.291 120.567 472.629C119.704 474.772 121.135 479.567 121.584 481.951L121.788 482.785C122.142 484.241 122.47 485.688 122.591 487.194C122.595 487.244 122.547 487.279 122.502 487.279C120.715 485.369 119.911 482.8 119.076 480.35C118.72 480.553 118.372 480.773 118.044 481.015C116.763 485.418 116.334 490.107 117.348 494.598L117.385 494.757C118.638 500.308 122.54 504.848 122.911 510.649C123.159 512.994 123.104 515.397 123.778 517.675C124.162 517.759 124.496 518.042 124.647 518.398L126.847 518.401C137.479 518.419 148.115 518.515 158.74 518.953C158.397 515.965 155.76 513.314 153.903 511.265C148.203 505.428 145.738 497.043 146.677 488.961C147.171 484.918 149.427 478.565 143.908 477.072C143.505 480.367 142.96 483.651 142.659 486.959C143.7 487.462 143.636 488.787 142.364 488.761C141.792 490.683 139.877 489.906 140.084 488.093C133.08 485.505 129.061 484.638 122.237 488.536C122.046 488.508 122.761 487.742 122.852 487.606C125.008 485.28 128.32 484.187 131.428 484.148C134.508 484.147 137.404 485.308 140.31 486.206C140.747 483.085 141.041 479.944 141.387 476.811L141.462 476.14C141.643 474.496 141.577 473.137 140.079 472.192ZM27.5116 512.504C28.5368 512.275 29.4796 511.929 30.5212 512.164C34.1869 514.918 19.209 515.694 17.9337 515.498C14.6872 515.403 11.4393 514.991 8.31492 514.073L8.07458 514.002C7.66256 513.887 4.68727 513.048 5.26565 512.669C9.49153 513.043 13.6286 513.819 17.9337 513.617C20.0814 513.572 22.2373 513.42 24.3618 513.097C25.4183 512.935 26.4699 512.739 27.5116 512.504ZM126.537 509.092C125.866 508.086 129.138 509.422 129.563 509.434C132.273 510.102 135.03 510.609 137.813 510.819C139.678 510.961 141.564 510.991 143.433 510.899C144.817 510.851 146.186 510.646 147.562 510.506L147.611 510.503C148.428 510.475 150.066 510.981 149.057 511.954C147.487 513.171 145.165 512.8 143.285 512.979C137.573 512.96 131.524 512.041 126.537 509.092ZM19.1538 501.781C20.8005 501.483 29.864 501.386 28.9606 504.168C28.7414 504.696 28.2403 504.871 27.7129 504.788C22.1033 503.423 16.0523 502.71 10.4609 504.591C10.3703 504.623 10.3076 504.474 10.3966 504.435C13.1459 503.057 16.0875 502.093 19.1538 501.781ZM136.801 499.062C138.28 498.949 139.769 498.989 141.25 499.1L141.731 499.138C142.395 499.19 143.079 499.25 143.715 499.444L143.834 499.482C144.647 499.744 146.479 501.141 145.088 501.813C143.595 502.296 142.332 501.721 140.892 501.351C136.876 500.4 132.655 500.722 128.677 501.695L129.237 501.875V501.875C129.272 501.85 129.316 501.908 129.283 501.936C128.881 502.288 128.329 502.163 128.044 501.726C127.994 501.651 128.026 501.531 128.105 501.49C130.801 500.075 133.775 499.292 136.801 499.062ZM11.7351 498.707C16.2701 496.699 21.5243 496.477 26.3877 497.059L26.7342 497.102C28.2514 497.28 30.2303 497.361 31.0985 498.775C31.3984 499.265 31.0886 499.826 30.604 500.003C29.1766 500.525 27.4987 499.48 26.1274 499.092C22.0728 497.981 17.7421 497.864 13.6191 498.632C13.6479 498.784 12.965 498.717 12.8164 498.772C12.63 498.761 11.3931 499.17 11.7351 498.707ZM126.095 495.572C130.051 493.648 134.625 493.189 138.897 494.182L139.074 494.233C140.967 494.764 144.014 495.391 144.692 497.395C144.838 497.847 144.52 498.457 144.044 498.548C142.43 498.857 140.965 497.678 139.505 497.112C135.208 495.497 130.345 495.11 125.902 496.299C125.872 496.473 125.843 496.647 125.811 496.822C125.887 496.772 125.966 496.883 125.905 496.945C125.196 497.442 124.459 496.188 126.095 495.572ZM21.9288 492.189C25.1299 491.976 28.3579 492.383 31.4482 493.228L32.0294 493.388C32.874 493.625 33.9681 493.998 34.091 494.91C34.1388 495.274 34.0481 495.524 33.7531 495.749C32.6773 496.554 30.3373 494.867 28.9998 494.669C24.1436 493.21 18.931 493.23 14.0118 494.347L13.8442 494.385L13.9629 495.23C14.0796 495.634 12.9982 494.682 13.4091 494.249C16.0059 492.926 19.036 492.427 21.9288 492.189ZM129.113 490.679C131.682 490.215 134.333 490.127 136.93 490.36L137.237 490.389C138.788 490.526 143.814 490.726 142.625 493.349C142.426 493.787 141.847 493.844 141.473 493.654C140.217 493.017 138.844 492.787 137.458 492.577C132.564 491.896 127.564 492.175 122.786 493.494C122.889 493.657 122.675 493.85 122.472 493.889C121.968 493.982 121.968 493.38 122.184 493.06C122.441 492.682 122.954 492.544 123.349 492.377C125.189 491.575 127.14 491.033 129.113 490.679ZM31.8074 476.085L31.5149 476.016C26.6122 474.862 15.7421 472.793 14.6165 479.548C14.2169 482.524 15.5348 485.426 15.4374 488.373C20.5214 486.304 26.1433 486.326 31.4252 487.693C31.8931 484.635 32.3398 481.573 32.8178 478.517L32.895 478.152C33.1077 477.12 33.1801 476.314 31.8074 476.085ZM20.8873 477.315C21.9557 476.399 23.7372 476.412 24.7853 477.412C25.7436 477.613 26.4197 478.631 26.4352 479.503C27.8922 482.065 26.1351 485.605 23.353 486.244C17.0712 487.569 14.2627 478.938 20.8873 477.315ZM129.727 473.227C134.983 472.288 136.892 478.958 132.578 481.663C126.484 484.721 122.424 475.107 129.727 473.227ZM23.4881 458.412C23.5654 458.922 23.3149 459.285 23.015 459.629C21.9374 464.048 20.3156 468.16 18.7165 472.396C23.9188 471.533 28.8339 472.286 33.4369 473.699C33.492 472.407 34.0809 471.067 34.49 469.848C35.2867 467.534 36.2495 465.279 37.36 463.102L37.4996 462.83C37.8985 462.055 38.2825 461.245 38.7539 460.504C33.6624 459.808 28.5709 459.182 23.4881 458.412ZM126.031 457.471L125.895 458.086C125.311 460.753 124.756 463.445 123.887 466.036L123.875 466.09C123.741 466.744 123.442 469.772 123.254 467.635C123.109 467.956 122.954 468.274 122.789 468.588L123.688 468.48C128.5 467.909 133.539 467.415 138.269 468.626C137.79 464.917 138.495 461.374 139.523 457.867C135.016 457.764 130.548 457.797 126.031 457.471ZM40.6711 462.08C40.5063 462.235 40.3447 462.394 40.1915 462.559C40.3991 462.505 40.607 462.454 40.7996 462.409C40.7917 462.287 40.7059 462.195 40.6711 462.08ZM142.248 458.679L142.15 458.91C142.133 458.948 142.117 458.986 142.101 459.024C142.177 458.979 142.261 458.935 142.352 458.897C142.311 458.83 142.276 458.759 142.248 458.679ZM59.9088 239.215C59.4473 239.438 58.966 239.495 58.3298 239.521C53.1606 239.736 48.008 240.335 42.9321 241.356C43.2123 245.464 44.4616 249.444 45.6505 253.36L45.8971 254.218C49.9141 268.251 53.4205 282.914 52.7143 297.591C52.7539 297.606 52.7918 297.626 52.828 297.644C52.7639 297.824 52.7178 298.008 52.6533 298.186L52.6121 298.292L52.3709 298.892C52.2376 299.224 52.1081 299.558 51.9957 299.901C51.7984 299.972 51.5559 300.024 51.3248 300.057C50.1521 307.828 51.2672 316.54 56.5514 322.617C54.3584 318.028 53.5163 312.321 54.4204 307.31C54.9111 307.841 54.946 309.067 55.1339 309.863C55.6498 312.583 56.0119 315.341 56.7869 318.004L56.8709 318.271C57.7398 320.998 59.1938 324.515 61.7138 325.923C62.1891 326.066 62.9244 325.888 63.1492 326.471C63.2792 326.992 63.0371 327.635 62.5029 327.797L62.4652 327.808C60.9307 328.243 59.6286 327.086 58.6446 325.866L58.5955 326.503C58.501 327.71 58.3691 328.867 57.6689 329.859C57.5864 330.204 57.5057 330.551 57.422 330.896C55.5265 342.595 52.6754 354.688 47.4845 365.248L46.8808 367.068C37.0124 396.805 26.7919 426.523 20.8442 457.376C27.0936 456.717 33.3955 457.036 39.6323 457.655C45.5137 458.266 51.7344 459.893 57.3689 457.296C72.6341 410.646 88.3809 364.137 105.639 318.199C107.719 310.908 111.626 303.876 113.558 296.401L113.679 296.006C114.134 294.507 114.347 293.535 114.013 291.861L113.999 291.657C113.93 290.609 113.906 289.02 115.101 288.73C115.304 288.68 115.569 288.718 115.71 288.893C116.448 289.841 115.757 291.049 115.97 292.15C116.59 296.361 114.929 300.332 112.987 303.963C113.113 304.117 113.201 304.305 113.216 304.512C113.385 306.75 113.364 309.011 113.461 311.254C113.738 317.704 114.14 324.148 114.65 330.583C116.246 342.368 118.508 354.032 119.738 365.869C122.537 393.44 122.033 421.224 124.066 448.85C124.082 451.276 124.844 453.799 124.072 456.154C124.559 455.834 125.249 455.906 125.676 456.292C133.962 455.719 142.261 456 150.545 455.507C150.553 455.134 150.581 454.786 150.596 454.517C150.364 453.966 150.749 453.353 150.737 452.768C149.727 447.035 150.559 440.873 150.35 435.011C150.36 429.463 150.388 423.917 150.426 418.369C150.739 383.701 150.318 349.026 150.952 314.362C151.001 312.658 151.079 310.958 151.189 309.258C150.733 308.75 151.037 308.03 151.038 307.42L151.064 306.878C151.203 304.138 151.361 301.621 150.292 298.921C150.317 298.599 150.392 298.297 150.559 298.051C145.563 295.707 140.346 293.932 135.188 292.001C134.318 292.216 133.228 291.675 133.045 290.738C131.102 280.762 129.571 270.723 128.247 260.649C119.586 266.339 109.026 267.238 99.1909 269.543L97.3295 270.026C92.7391 271.223 87.9241 272.616 84.4327 275.878C84.0798 281.027 86.702 295.866 78.8222 295.478C76.2407 296.266 73.5872 296.899 70.9453 297.239C74.0212 303.08 79.6321 310.862 75.1961 317.331C74.5526 318.013 73.6876 317.321 73.0995 316.897C73.1724 320.679 73.2734 324.441 73.2775 328.219C73.2775 328.723 72.7583 329.178 72.2573 329.006C69.4159 328.026 69.0647 324.623 68.6246 322.055C68.2307 319.762 67.8351 317.469 67.4461 315.174C67.1982 319.292 68.1886 323.53 67.382 327.601C66.6076 329.929 64.2014 329.236 63.4802 327.284L63.4589 327.225C62.0325 323.267 61.3378 319.042 61.0494 314.851L61.0341 314.606C60.9509 313.333 60.8158 311.988 61.1303 310.756C61.7682 311.956 61.6094 313.914 61.9064 315.366C62.4042 318.468 63.0773 321.549 64.0229 324.545L64.0475 324.65C64.4748 326.408 66.1487 329.831 66.1294 325.53C66.1934 323.345 66.0056 321.166 65.8869 318.985L65.8704 318.674C65.7155 315.696 65.732 312.689 66.6253 309.818C66.8528 309.083 68.0889 308.945 68.2389 309.818C68.839 313.311 69.4125 316.807 69.986 320.304C70.4042 322.439 70.3869 324.848 71.6573 326.69C71.6722 322.668 71.4493 318.659 71.2568 314.642L71.2183 314.518C71.0619 314.006 70.8927 313.322 71.2519 312.879C71.392 311.963 72.7303 312.068 72.8441 313.028C72.8688 313.228 72.8869 313.431 72.9067 313.633C73.3501 314.189 73.7621 314.757 74.2863 315.236C77.7859 308.086 66.3355 295.739 64.7547 287.665C60.099 271.942 62.7757 255.457 64.1299 239.446C62.7296 239.28 61.3177 239.236 59.9088 239.215ZM20.7033 457.922C20.6502 458.12 20.6095 458.338 20.5137 458.517C20.5896 458.53 20.667 458.545 20.7445 458.562C20.8384 458.372 20.9373 458.187 21.0445 458.006C20.9308 457.979 20.817 457.952 20.7033 457.922ZM78.826 384.286C78.9727 384.261 79.0321 384.464 78.8887 384.511C74.0643 386.116 69.9981 389.102 65.932 392.065C65.3551 392.485 64.8161 391.609 65.2199 391.134C66.9205 389.141 69.0032 387.766 71.3218 386.609L71.4585 386.541C73.7779 385.372 76.266 384.627 78.826 384.286ZM125.024 381.301C124.968 381.193 125.116 381.109 125.183 381.206C126.258 382.721 127.681 384.131 129.093 385.321C130.524 386.527 132.085 387.481 133.616 388.539C134.442 389.109 133.733 390.324 132.836 389.887C131.092 389.039 129.527 387.637 128.246 386.179C126.926 384.674 125.948 383.064 125.024 381.301ZM95.0705 328.788C89.7461 337.739 81.8844 346.753 76.0171 355.932C72.0549 361.816 68.4707 367.953 64.1284 373.572C63.2598 374.755 61.5852 373.767 62.1802 372.42C63.8317 368.691 65.673 365.108 67.8895 361.689L68.6045 360.628C76.3241 349.184 84.5058 337.716 95.0705 328.788ZM117.253 315.127C117.207 314.978 117.425 314.912 117.484 315.044L117.49 315.06C121.487 326.027 127.65 335.996 133.041 346.279C133.458 347.121 132.347 348.136 131.683 347.339C127.877 342.773 125.209 337.402 122.842 331.966C120.347 326.577 118.816 320.838 117.253 315.127ZM126.541 148.725C128.988 153.641 130.785 158.844 132.029 164.199C132.413 165.852 130.197 166.866 129.302 165.418L129.275 165.373C128.174 163.535 126.534 161.917 124.457 161.284C123.042 167.219 123.732 173.492 124.467 179.485C125.77 187.835 126.808 196.221 126.963 204.683L126.97 205.136C127.424 234.033 131.668 262.799 136.316 291.091C143.747 292.286 150.549 295.655 157.399 298.617C158.589 299.082 159.805 299.487 161.051 299.767C157.61 267.692 144.522 237.61 140.478 205.651C139.409 197.339 139.359 188.899 140.836 180.635C140.86 180.477 141.084 180.53 141.094 180.67C141.257 184.065 141.837 187.415 142.181 190.791C142.415 188.863 142.955 186.91 143.392 185.062C143.926 183.254 144.123 180.351 145.688 179.172L145.787 178.83V178.83C145.828 178.684 146.046 178.745 146.011 178.892C145.994 178.962 145.978 179.03 145.963 179.1C146.968 179.368 146.029 180.561 145.78 181.132C144.167 185.464 143.687 190.153 142.586 194.617C144.179 208.555 147.049 222.317 150.583 235.863C153.83 235.006 157.089 234.18 160.344 233.342C153.083 209.65 157.328 183.209 146.449 160.586C142.373 152.994 132.335 154.025 126.541 148.725ZM71.3712 144.394C69.8483 144.312 68.2577 145.14 66.7958 145.425C64.8574 145.802 62.929 146.1 61.0337 146.679C51.3313 149.344 41.9709 156.623 40.2132 167.11C39.005 174.311 41.9966 181.327 41.8914 188.508C41.5758 195.622 39.2348 202.46 38.3227 209.503C37.2253 216.704 36.8477 224.242 37.7887 231.479C46.4923 229.005 55.5817 228.85 64.5065 230.127C63.7622 219.159 64.7389 208.136 65.2794 197.175C65.6684 190.136 66.3342 183.065 66.0986 176.012C66.0936 175.856 66.3474 175.817 66.3718 175.974C69.0485 190.379 67.4784 205.001 67.2081 219.528C67.0364 223.199 67.49 226.904 67.3067 230.554C71.3643 231.429 71.2176 236.171 69.9768 239.296C69.7569 240.048 69.0103 239.918 68.4061 239.826C67.7514 240.516 66.1894 239.616 65.2992 239.616C64.6023 257.648 60.3688 276.908 69.0439 293.762C72.6708 293.782 76.1621 292.528 79.687 291.816L79.8793 291.778L79.8843 291.776C80.4023 291.1 80.6558 290.014 80.7251 289.218C81.2177 275.332 79.676 261.414 80.578 247.526C81.6827 232.111 85.1139 216.79 83.5269 201.27C82.4296 187.4 79.4173 173.78 77.9653 159.951L77.8916 159.236C77.8011 158.383 77.767 157.441 77.346 156.791C74.8966 159.028 72.8411 161.687 71.3697 164.68C70.5549 166.126 68.3723 165.482 68.3387 163.85C68.0248 160.936 67.9784 158.011 68.2963 155.097L68.3253 154.839C68.7194 151.191 69.8194 147.709 71.3712 144.394ZM162.433 244.469C159.279 244.636 156.12 244.987 152.959 244.946L153.277 246.142C157.103 260.498 161.177 274.829 163.579 289.518L163.666 288.141C163.753 286.763 163.836 285.385 163.89 284.004C164.572 270.802 163.531 257.618 162.433 244.469ZM153.203 244.483L152.829 244.464L152.852 244.546V244.546C152.929 244.53 153.008 244.516 153.086 244.503L153.203 244.483ZM163.485 234.787C163.426 234.768 163.325 234.768 163.213 234.773C163.052 235.147 162.725 235.455 162.346 235.557L159.184 236.413C156.548 237.127 153.911 237.837 151.27 238.528C151.714 240.241 152.164 241.954 152.619 243.666C156.22 242.5 160.208 242.765 163.879 242.014C163.834 240.037 163.727 238.049 163.693 236.068C163.685 235.745 163.751 235.225 163.586 234.935C163.482 234.75 163.586 234.818 163.485 234.787ZM42.5089 241.443L42.4098 241.464V241.464C42.4428 241.554 42.4725 241.644 42.5005 241.736C42.5023 241.638 42.5038 241.541 42.5089 241.443ZM65.9547 231.927C59.1695 230.935 52.2692 230.348 45.4259 231.024C42.3306 231.445 39.1884 231.894 36.1547 232.469C35.0998 234.097 36.2669 238.058 37.5804 239.311C37.9743 239.461 38.6517 239.17 39.0292 239.085C41.8611 238.442 44.721 237.924 47.595 237.52C47.6807 237.628 47.8059 237.698 47.9609 237.683L48.6212 237.622C52.5852 237.259 56.5842 236.993 60.5568 237.22L60.5863 237.243V237.243C63.2664 237.44 65.9374 237.864 68.6065 238.172C69.6602 235.402 69.4786 232.224 65.9547 231.927ZM115.324 141.597C115.586 142.49 115.901 143.357 116.293 144.2C116.702 144.087 117.266 144.178 117.567 144.437L117.695 144.414C118.047 144.347 118.469 144.244 118.579 144.232C123.427 143.557 123.058 150.079 123.076 153.356C123.105 154.999 123.138 156.644 123.188 158.287C124.575 157.812 126.43 158.666 127.643 159.422C126.693 156.244 125.578 153.118 124.333 150.047L124.05 149.328C123.082 146.889 121.998 144.433 119.949 142.736C118.365 142.319 116.831 142.243 115.324 141.597ZM80.1741 139.961C75.668 138.345 73.8831 142.018 72.6333 145.68C71.1597 149.737 70.7576 154.203 71.0032 158.567L71.1549 158.366C72.8128 156.143 75.2032 152.475 78.2257 153.065C78.1962 151.378 78.2568 149.526 78.5784 147.775C78.3905 146.645 78.3427 145.504 78.4731 144.362C78.542 142.931 80.0925 143.148 81.1134 142.946C81.9968 142.354 83.0665 142.116 84.1412 142.532C84.9521 142.424 85.763 142.321 86.574 142.217C86.6984 141.942 86.7989 141.666 86.9036 141.384C84.6592 140.918 82.4155 140.437 80.1741 139.961Z" fill="#222222"/>
<path fill-rule="evenodd" clip-rule="evenodd" d="M134.381 104.205C133.772 94.2259 130.527 82.9116 120.977 78.0119C99.9238 69.5796 72.2431 90.8145 70.7776 112.508C70.2667 119.933 74.398 128.047 81.9475 130.112C83.626 132.331 86.1645 133.687 88.67 134.863C118.512 150.314 137.788 137.754 134.381 104.205V104.205Z" fill="white"/>
<path fill-rule="evenodd" clip-rule="evenodd" d="M141.18 97.9976C140.125 95.0744 139.011 92.1737 137.839 89.2955C136.698 86.4942 135.667 83.6324 134.249 80.9639C125.783 65.0261 110.389 65.0261 102.431 67.1085C98.3044 65.3341 90.5748 65.8346 86.2778 67.4358C79.3213 70.028 70.8412 80.2251 67.9419 84.8066C61.5405 94.922 57.5456 108.385 61.7977 120.074C62.3535 121.602 63.0623 123.017 63.8603 124.38C63.3576 125.06 62.779 125.704 62.1381 126.337C60.2333 128.218 58.3286 130.036 56.6832 132.158C55.0481 134.266 53.6926 136.507 52.6835 138.979C50.7807 143.64 50.6891 148.918 53.2047 153.365C55.3933 157.235 59.2704 160.116 63.6384 160.391C63.8627 160.422 64.0873 160.451 64.3128 160.474C64.8916 161.425 65.5973 162.301 66.4027 163.065C68.8704 165.407 74.7527 166.609 78.1078 166.686C78.2799 166.824 78.4535 166.962 78.6271 167.098C80.68 168.71 82.8342 170.337 85.191 171.484C86.7874 172.263 88.8805 172.912 90.546 172.351C91.3016 172.855 92.5411 172.749 93.2902 172.336C94.5216 171.659 95.5232 170.44 96.1325 169.192C97.6099 166.161 97.2546 162.845 96.8752 159.607C96.4572 156.031 96.0553 152.453 95.647 148.877C95.3271 146.081 94.9927 143.238 94.1406 140.544C93.7001 139.148 93.123 137.807 92.3771 136.546C92.3964 136.44 92.3932 136.334 92.3626 136.235C92.1183 135.442 91.6135 135.027 91.0154 134.488C90.9383 134.419 90.8611 134.348 90.7855 134.276C90.4865 133.936 90.1666 133.62 89.8242 133.352C89.6923 133.218 89.5621 133.084 89.4319 132.949C88.35 131.818 87.3275 130.629 86.4192 129.355C85.5383 128.12 84.7425 126.83 83.9853 125.516C83.2152 124.179 82.7056 122.705 81.9372 121.378C81.8713 121.264 81.7041 121.242 81.6108 121.336C81.3729 121.582 81.2202 121.855 81.2491 122.142L81.1302 122.159C81.0851 121.726 80.6849 121.373 80.1415 121.468C79.328 121.609 78.6592 121.662 77.9551 121.393C78.0789 120.573 78.193 119.751 78.3056 118.928C78.5113 117.414 78.7027 115.894 78.8666 114.375C79.2637 114.47 79.6576 114.606 80.0434 114.779C80.5932 115.025 81.1125 115.355 81.5562 115.761C81.9935 116.162 82.2957 116.703 82.8294 116.982C83.4435 117.301 84.1846 116.774 84.0046 116.081C83.6397 114.68 81.5739 113.878 80.2958 113.613C79.8569 113.522 79.4084 113.483 78.9599 113.493C79.0612 112.517 79.1512 111.542 79.2251 110.565C79.2605 110.103 79.2927 109.641 79.3232 109.177C80.3167 108.877 81.381 108.787 82.4147 108.928C82.7555 109.199 83.0963 109.467 83.4258 109.738C84.4724 110.602 85.5141 111.47 86.543 112.354C86.6363 112.432 86.7279 112.511 86.8211 112.591C87.432 113.116 88.194 112.596 88.0912 111.853C87.252 105.766 90.9881 100.924 95.3624 97.1729C100.205 93.0192 109.008 92.5355 114.766 85.3407C117.419 85.8793 123.34 87.4793 125.783 91.3651C129.204 96.8103 128.758 101.689 129.018 107.866C129.278 114.048 129.941 120.496 128.534 126.591C127.237 132.211 123.724 137.013 118.274 139.22C118.139 139.275 118.003 139.328 117.866 139.379C115.048 140.44 111.972 140.74 109.008 140.181C105.727 139.562 102.987 138.064 100.258 136.22C100.1 136.116 99.8702 136.331 99.9892 136.488C103.587 141.247 110.654 142.837 116.26 141.58C116.522 141.521 116.782 141.457 117.041 141.386C115.787 144.985 116.04 148.935 117.673 152.439C118.655 154.547 120.154 156.371 121.978 157.81C123.989 159.395 126.484 160.676 127.88 162.901C129.158 164.94 128.778 167.231 126.59 168.409C126.039 168.707 125.827 169.671 126.373 170.095C126.582 170.255 126.791 170.419 127.005 170.58C128.23 171.502 131.595 173.235 132.14 173.299C136.979 173.872 140.233 170.326 142.318 166.143C144.766 161.234 144.13 155.251 141.432 150.576C139.268 146.825 135.006 143.129 136.701 138.381C137.305 136.685 138.542 135.24 139.742 133.934C141.112 132.447 142.585 131.054 143.898 129.514C145.203 127.985 146.361 126.321 147.007 124.402C147.951 121.598 147.481 118.566 146.773 115.766C145.253 109.756 143.281 103.826 141.18 97.9976Z" fill="#222222"/>
<path fill-rule="evenodd" clip-rule="evenodd" d="M119.05 123.664C119.601 122.693 121.247 122.851 121.499 123.983C122.009 126.28 119.265 128.401 117.181 128.453C115.11 128.506 112.786 126.747 113.086 124.525C113.16 123.975 113.896 124.042 114.146 124.386L114.244 124.519C114.925 125.432 115.824 126.377 117.088 126.154C117.612 126.062 118.088 125.736 118.404 125.315C118.786 124.808 118.744 124.202 119.05 123.664ZM105.88 106.863C106.161 106.786 106.444 106.816 106.693 106.921C107.248 107.023 107.712 107.485 107.875 108.012C107.888 108.058 107.902 108.103 107.918 108.148L107.943 108.214L107.876 108.045C107.907 108.212 108.043 108.387 108.092 108.554C108.152 108.759 108.167 108.993 108.146 109.219C108.323 109.221 108.499 109.227 108.676 109.242L108.846 109.257C109.798 109.346 110.843 109.508 111.408 110.329C111.725 110.79 111.427 111.621 110.845 111.71C109.948 111.847 109.176 111.351 108.283 111.252C107.438 111.158 106.554 111.212 105.72 111.364C103.999 111.678 102.417 112.375 100.74 112.812L100.512 112.869V112.869L100.512 112.868C100.224 112.938 99.8981 112.539 100.183 112.306C101.526 111.204 103.247 110.311 104.942 109.767C104.695 109.375 104.618 108.859 104.787 108.438C104.813 108.351 104.846 108.266 104.88 108.182L104.951 108.008V108.008C104.958 107.926 104.974 107.845 104.997 107.765L105.001 107.741V107.741L105.003 107.743V107.743C105.129 107.333 105.458 106.979 105.88 106.863ZM123.025 106.926C123.392 106.559 123.909 106.614 124.292 106.902L124.343 106.942V106.942C124.705 107.102 125.004 107.453 125.2 107.777C125.404 108.114 125.54 108.458 125.545 108.829C126.435 108.832 127.287 109.098 127.94 109.815C128.151 110.046 128.295 110.403 128.179 110.717L128.11 110.903V110.903C127.891 111.496 126.905 111.837 126.569 111.14L126.554 111.106C126.198 110.279 124.831 110.366 124.104 110.45C123.598 110.509 123.098 110.635 122.609 110.776C122.436 110.825 122.266 110.879 122.095 110.934L121.925 110.989C121.834 111.019 121.36 111.275 121.655 111.215C121.734 111.198 121.793 111.313 121.713 111.352C121.361 111.52 120.986 111.186 121.01 110.809C121.05 110.155 122.091 109.797 122.592 109.571L122.621 109.558C122.813 109.469 123.015 109.384 123.222 109.305C123.105 109.132 123.009 108.94 122.929 108.733C122.853 108.538 122.802 108.348 122.774 108.141C122.747 108.039 122.747 107.938 122.774 107.836L122.779 107.807V107.807C122.764 107.74 122.758 107.671 122.759 107.601L122.756 107.574H122.759C122.768 107.33 122.866 107.085 123.025 106.926ZM117.152 113.89C118.564 114.325 120.894 115.512 120.158 117.342C119.131 119.024 116.406 117.788 115.086 117.245C113.899 116.853 113.282 118.512 114.429 119.012C123.907 122.754 123.872 112.878 117.496 113.023C116.794 113.039 116.772 113.745 117.152 113.89ZM104.612 101.012L104.853 100.942C106.105 100.58 107.382 99.9554 108.493 100.93C108.93 101.313 109.02 102.109 108.707 102.586C107.996 103.674 106.941 103.508 105.793 103.6C104.918 103.671 104.057 103.927 103.24 104.248C102.573 104.51 101.954 104.879 101.37 105.29C100.796 105.694 100.404 106.327 99.8155 106.691C99.5998 106.824 99.3506 106.687 99.2731 106.47C98.9985 105.703 99.4625 104.746 99.8551 104.092C100.334 103.294 101.062 102.642 101.845 102.148C102.702 101.607 103.65 101.295 104.612 101.012V101.012ZM122.849 100.186C124.964 100.185 127 101.36 128.183 103.081C128.585 103.666 128.29 104.532 127.713 104.869C127.066 105.247 126.373 104.975 125.947 104.433L125.921 104.4C125.243 103.498 124.368 102.788 123.331 102.326C122.825 102.1 122.266 101.917 121.719 101.824L121.542 101.794C121.294 101.752 121.006 101.713 120.782 101.752C120.662 101.767 120.552 101.807 120.45 101.867C120.499 101.974 120.373 102.102 120.256 102.038C119.731 101.75 119.795 101.236 120.229 100.837C120.844 100.271 122.055 100.186 122.849 100.186Z" fill="#222222"/>
<path fill-rule="evenodd" clip-rule="evenodd" d="M132.357 114.859C130.405 116.872 127.147 117.449 124.55 116.37C117.883 113.59 121.146 104.918 126.288 102.589C126.931 102.43 127.789 102.051 128.571 101.965C128.642 101.93 128.796 102.03 128.983 101.935C134.653 102.567 135.944 111.351 132.357 114.859M110.851 115.374C108.662 118.272 104.592 119.166 101.267 117.819C94.6975 115.237 97.0275 107.547 101.522 104.533C111.016 100.973 114.937 110.031 110.851 115.374M96.6101 108.954C96.604 108.951 96.5979 108.95 96.5916 108.947C96.6263 108.932 96.6611 108.916 96.6956 108.901C96.6844 108.93 96.6722 108.959 96.6612 108.989C96.6442 108.977 96.6292 108.963 96.6101 108.954M136.876 105.822C136.34 105.823 135.566 105.911 135.122 106.282C134.028 102.599 129.99 99.1912 126.477 101.676C123.711 102.564 121.659 104.533 120.492 107.15C118.389 105.902 115.082 106.435 113.258 108.086C112.064 104.147 109.124 102.768 105.625 102.564C101.806 101.94 97.9994 105.641 96.8117 108.611C95.8241 108.498 94.3485 108.185 93.4195 108.793C87.3897 107.215 76.8478 106.345 75.622 107.222C74.7484 107.556 74.269 109.614 75.4892 109.725C76.5525 109.574 75.3651 108.217 76.4369 108.069C82.1476 107.716 87.6915 108.864 93.3418 109.345C93.8463 110.022 95.4762 110.249 96.3458 109.977C94.9763 115.014 97.9327 118.441 102.362 119.467C109.222 121.04 115.189 114.916 113.396 108.547C115.474 107.515 117.864 107.56 120.127 108.103C116.345 121.995 138.764 121.372 135.263 106.758C137.593 107.915 138.099 106.055 136.876 105.822" fill="#222222"/>
</g>
</svg>
